<svg xmlns="http://www.w3.org/2000/svg" viewBox="0 0 257.2 47.5"><style>.a{fill:#FFF;}</style><rect y="38.9" width="43.3" height="2.5"/><path d="M53.3 16.2h0.1c1.5-3.1 4.2-4.5 7.4-4.5 7.7 0 10 6.5 10 12.8 0 6.3-2.3 12.8-10 12.8 -3.1 0-5.9-1.2-7-3.4l-0.1 0.1V41c0 1.4 0.4 2.2 1.8 2.2h2.1v4.1H41.4v-4.1h1.9c1.5 0 1.8-0.8 1.8-2.2V18.8c0-1.4-0.4-2.2-1.8-2.2h-2v-4.1h11.9V16.2zM53.7 24.7c0 5 1.2 8.2 4.1 8.2 2.9 0 4.1-3.1 4.1-8.2 0-5-1.2-8.2-4.1-8.2C54.9 16.5 53.7 19.6 53.7 24.7z" class="a"/><path d="M94.2 36.5v-3.9h-0.1c-2.3 3.3-4.7 4.7-8.8 4.7 -5.8 0-7.8-2.5-7.8-8V18.8c0-1.4-0.4-2.2-1.8-2.2h-1.7v-4.1h12v15.1c0 3.6 0 5 3.9 5 2.4 0 3.8-2.2 3.8-4.4v-9.5c0-1.4-0.4-2.2-1.8-2.2h-2.3v-4.1h12.6v17.7c0 1.4 0.4 2.2 1.8 2.2h1.8v4.1H94.2z" class="a"/><path d="M131.8 28.1c-0.2 6.6-4.9 9.1-10.6 9.1 -7.6 0-12.7-4.2-12.7-12.8 0-8.6 6.2-12.8 12.7-12.8 5.5 0 10.6 2.7 10.6 8.3 0 2.7-1.7 5-4.6 5 -2.5 0-4.5-1-4.5-3.7 0-2.4 1.6-3.7 3.9-3.7 -0.9-1.1-2.5-1.7-4.1-1.7 -2.6 0-5 2.6-5 8.5s1.5 8.5 5 8.5c2.7 0 3.9-2.3 4.2-4.7H131.8z" class="a"/><path d="M143.6 31.7c0 1.6 0.4 2.4 2.1 2.4h3.3v2.4h-15.1V34h3.3c1.7 0 2.1-0.8 2.1-2.4V7.2c0-1.6-1.2-2.4-2.1-2.4h-3.3V2.5h9.7V31.7z" class="a"/><path d="M160.7 31.7c0 1.6 0.4 2.4 2.1 2.4h3.3v2.4H151V34h3.3c1.7 0 2.1-0.8 2.1-2.4V17.2c0-1.6-0.4-2.4-2.1-2.4H151v-2.4h9.7V31.7zM153.7 9l6.4-6.6c1.5-1.5 2.1-2.4 3.4-2.4 1 0 1.9 1 1.9 1.9 0 1-0.5 1.4-2.3 2.6L156.1 9H153.7z" class="a"/><path d="M168.4 12.5c4.8-0.7 5.7-5.8 6-10h2.7v10h7.3v2.4h-7.3v16.9c0 2.1 0.8 3 2.6 3 2.2 0 3.6-2.1 3.6-5v-3h2.4V29c0 5-1.5 8.2-7 8.2 -4.5 0-5.9-3-5.9-5.8V14.9h-4.4V12.5z" class="a"/><path d="M197.7 31.7c0 1.6 0.4 2.4 2.1 2.4h3.3v2.4H188V34h3.3c1.7 0 2.1-0.8 2.1-2.4V17.2c0-1.6-0.4-2.4-2.1-2.4H188v-2.4h9.7V31.7zM194.9 7.5c-1.5 0-2.8-1.2-2.8-2.8 0-1.5 1.2-2.8 2.8-2.8 1.5 0 2.8 1.3 2.8 2.8C197.6 6.3 196.3 7.5 194.9 7.5z" class="a"/><path d="M228 27.6c-0.7 6.9-5 9.6-11.7 9.6 -6.4 0-11.3-4.3-11.3-12.8 0-7.6 5.4-12.8 12.7-12.8 4.6 0 10.4 2.4 10.4 7.7 0 2.1-1.2 3.5-3.2 3.5 -1.3 0-2.5-1.1-2.5-2.4 0-1.7 0.9-2.7 2.6-2.9 -0.8-2.5-4.2-3.5-6.5-3.5 -6.5 0-8.6 5.6-8.6 10.4 0 4.7 2.1 10.4 7.6 10.4 4.1 0 6.7-2.8 7.5-7.2H228z" class="a"/><path d="M257.2 24.5c0 7.4-5 12.8-13.2 12.8 -8.3 0-13.2-5.4-13.2-12.8s5-12.8 13.2-12.8C252.2 11.7 257.2 17.1 257.2 24.5zM235.6 24.5c0 5.5 2 10.4 8.4 10.4 6.4 0 8.4-4.8 8.4-10.4s-2-10.4-8.4-10.4C237.6 14.1 235.6 18.9 235.6 24.5z" class="a"/><path d="M4.9 24.8c0 5.2 1.1 10 7.2 10 4.1 0 6.6-2.2 7.7-6.2h3c-1.1 5.5-4.7 8.6-10.7 8.6 -7.6 0-12-4.4-12-12.8C0 16 4.4 11.7 12 11.7c8.3 0 10.9 5.8 11.4 13.1H4.9zM18.5 22.3c0-4.5-2-8.3-6.7-8.3 -4.8 0-7 3.8-7 8.3H18.5z" class="a"/><path d="M35.2 31.7c0 1.6 0.4 2.4 2.1 2.4h3.3v2.4H25.5V34h3.3c1.7 0 2.1-0.8 2.1-2.4V7.2c0-1.6-1.2-2.4-2.1-2.4h-3.3V2.5h9.7V31.7z" class="a"/><rect x="55.5" y="38.9" width="201.7" height="2.5"/></svg>
